# xmcd
#
# Track frame offsets:
#	150
#	12350
#	25651
#	37269
#	54324
#	67368
#	78567
#	88828
#	101508
#	114378
#
# Disc length: 1685 seconds
#
# Revision: 1
# Processed by: cddbd v1.5.2PL0 Copyright (c) Steve Scherf et al.
# Submitted via: audiograbber 1.83.01
#
DISCID=8206930a
DTITLE=Vereous - #1 Legendary Country Disc# 2
DYEAR=1900
DGENRE=Country
TTITLE0=Merle Haggard - Okie From Muskogee
TTITLE1=Conway Twitty - After All The Good Is Gone
TTITLE2=Hank Williams - Kaw-Liga
TTITLE3=Glen Campbell - Southern Nights (live)
TTITLE4=Bobby Helms - My Special Angel
TTITLE5=Eddy Arnold - A Full Time Job
TTITLE6=Hank Thompson - Wake Up Irene
TTITLE7=Hank Snow - I'm Movin On
TTITLE8=Faron Young - It's Four In The Morning
TTITLE9=Tammy Wynette - Til I Get It Right
EXTD=
EXTT0=
EXTT1=
EXTT2=
EXTT3=
EXTT4=
EXTT5=
EXTT6=
EXTT7=
EXTT8=
EXTT9=
PLAYORDER=
